HIERARCHY
ROOT RootJoint
{
    OFFSET   0.000000   0.000000   0.000000
    CHANNELS 6 Xposition Yposition Zposition Xrotation Yrotation Zrotation
    JOINT lHip
    {
        OFFSET   0.100000  -0.051395   0.000000
        CHANNELS 3 Xrotation Yrotation Zrotation
        JOINT lKnee
        {
            OFFSET   0.000000  -0.410000   0.000000
            CHANNELS 3 Xrotation Yrotation Zrotation
            JOINT lAnkle
            {
                OFFSET   0.000000  -0.390000   0.000000
                CHANNELS 3 Xrotation Yrotation Zrotation
                JOINT lToeJoint
                {
                    OFFSET   0.000000  -0.050000   0.130000
                    CHANNELS 3 Xrotation Yrotation Zrotation
                    End Site
                    {
                        OFFSET   0.010000   0.002000   0.060000
                    }
                }
            }
        }
    }
    JOINT rHip
    {
        OFFSET  -0.100000  -0.051395   0.000000
        CHANNELS 3 Xrotation Yrotation Zrotation
        JOINT rKnee
        {
            OFFSET   0.000000  -0.410000   0.000000
            CHANNELS 3 Xrotation Yrotation Zrotation
            JOINT rAnkle
            {
                OFFSET   0.000000  -0.390000   0.000000
                CHANNELS 3 Xrotation Yrotation Zrotation
                JOINT rToeJoint
                {
                    OFFSET   0.000000  -0.050000   0.130000
                    CHANNELS 3 Xrotation Yrotation Zrotation
                    End Site
                    {
                        OFFSET  -0.010000   0.002000   0.060000
                    }
                }
            }
        }
    }
    JOINT pelvis_lowerback
    {
        OFFSET   0.000000   0.093605   0.000000
        CHANNELS 3 Xrotation Yrotation Zrotation
        JOINT lowerback_torso
        {
            OFFSET   0.000000   0.100000   0.000000
            CHANNELS 3 Xrotation Yrotation Zrotation
            JOINT torso_head
            {
                OFFSET   0.000000   0.282350   0.000000
                CHANNELS 3 Xrotation Yrotation Zrotation
                End Site
                {
                    OFFSET   0.000000   0.192650   0.000000
                }
            }
            JOINT lTorso_Clavicle
            {
                OFFSET   0.001000   0.157500   0.000000
                CHANNELS 3 Xrotation Yrotation Zrotation
                JOINT lShoulder
                {
                    OFFSET   0.117647   0.000000   0.000000
                    CHANNELS 3 Xrotation Yrotation Zrotation
                    JOINT lElbow
                    {
                        OFFSET   0.245000   0.000000   0.000000
                        CHANNELS 3 Xrotation Yrotation Zrotation
                        JOINT lWrist
                        {
                            OFFSET   0.240000   0.000000   0.000000
                            CHANNELS 3 Xrotation Yrotation Zrotation
                            End Site
                            {
                                OFFSET   0.116353  -0.002500   0.000000
                            }
                        }
                    }
                }
            }
            JOINT rTorso_Clavicle
            {
                OFFSET  -0.001000   0.157500   0.000000
                CHANNELS 3 Xrotation Yrotation Zrotation
                JOINT rShoulder
                {
                    OFFSET  -0.117647   0.000000   0.000000
                    CHANNELS 3 Xrotation Yrotation Zrotation
                    JOINT rElbow
                    {
                        OFFSET  -0.245000   0.000000   0.000000
                        CHANNELS 3 Xrotation Yrotation Zrotation
                        JOINT rWrist
                        {
                            OFFSET  -0.240000   0.000000   0.000000
                            CHANNELS 3 Xrotation Yrotation Zrotation
                            End Site
                            {
                                OFFSET  -0.116353  -0.002500   0.000000
                            }
                        }
                    }
                }
            }
        }
    }
}
MOTION
Frames: 12
Frame Time:   0.010000
  0.000000   0.000000   0.000000   0.000000   0.000000   0.000000   0.000000   0.000000   0.000000   0.000000   0.000000   0.000000   0.000000   0.000000   0.000000   0.000000   0.000000   0.000000   0.000000   0.000000   0.000000   0.000000   0.000000   0.000000   0.000000   0.000000   0.000000   0.000000   0.000000   0.000000   0.000000   0.000000   0.000000   0.000000   0.000000   0.000000   0.000000   0.000000   0.000000   0.000000   0.000000   0.000000   0.000000   0.000000   0.000000   0.000000   0.000000   0.000000   0.000000   0.000000   0.000000   0.000000   0.000000   0.000000   0.000000   0.000000   0.000000   0.000000   0.000000   0.000000   0.000000   0.000000   0.000000
 -0.139118   0.863760   0.961602   1.417117  -4.878446  -0.817266 -15.264432  10.286287  -0.798315  29.915497  -2.824743   4.921565  -1.552917  -1.577498   1.327383   0.028874  -0.570944  -0.112078 -14.971766  -7.723369  -0.288805  26.772714  -2.305770  -7.264319  -1.147047  -1.187050   0.417993  -0.296298  -0.331719   0.876801   1.344346  -0.022728   1.276485   6.998761  -0.212080   1.273605  14.292830   4.032052  -3.229540   0.181282  -0.825248 -14.856733  14.141664 -28.373912 -49.613765   0.070840 -29.212926   4.785535   3.297303   0.720641  -1.454678  -0.863833   0.276163  16.608263  20.833468  25.698679  42.590693  -1.363799  29.731244  -4.241941   7.827458   4.064244  -2.812308
 -0.196398   0.872992   1.431822 -17.764586  86.634927  22.733891 -17.780011   7.675075  -0.278281  33.061167  -1.689026   4.836321  -3.241028  -1.857585  -1.210750   0.200611   0.161884  -0.631255 -11.850292 -11.696641  -2.601448  23.410260  -2.411536  -4.747259  -0.719623  -2.035665   3.454456   0.327357   0.849730   0.117405   2.087277  -0.296191   0.795054   5.453047   0.690925  -0.339291  13.757987   4.897630  -3.037149  -0.133537  -3.141594 -15.863505  15.298310 -30.348708 -46.834144   0.416920 -32.593185   6.773229   3.817673   1.373325  -1.657035  -0.533898  -0.246775  17.956795  20.177277  27.765783  46.339631  -1.419192  29.747332  -3.852948   9.180205   2.850285  -2.678368
  0.181153   0.831771   0.714583  12.262488 -84.194384  12.917172 -19.023686   8.996410   1.197287  28.573382  -1.446576   4.887717  -2.434579  -0.579111  -2.476936   0.026343  -1.286920  -0.326195 -12.398457 -11.210469   1.492218  23.113014  -0.832597  -6.577778  -1.397460   1.249452   2.368614   0.687731   1.248505   0.437996   0.420703  -0.560945   0.871985   6.218316   1.066231   0.536706  14.037657   6.028927  -1.244168   0.305682  -1.131358 -15.934296  16.398518 -26.955749 -48.696091   1.891632 -26.934786   6.393989   3.709598   2.090555  -3.170868  -0.733426   0.029457  15.896121  19.180434  25.209936  44.109711  -1.676883  29.219053  -2.573133   9.932850   4.755362  -2.227624
  0.025373   0.833530   0.822988   0.822178 -15.110936   2.118691 -17.217974   8.562213   2.497653  32.653591  -1.093409   3.926063  -3.625773  -0.706750  -3.858226  -0.680022  -0.421759  -0.813451 -17.331584 -11.429574  -3.004396  28.091670  -2.825995  -5.119174  -1.313752  -1.745378   1.666169  -0.644984  -0.635666  -0.151621   1.340112   0.438162   0.841722   7.553203  -1.340871  -1.097435  11.277669  -0.745752  -2.072206   0.404908  -2.093813 -15.571692  16.181769 -28.476964 -46.936542  -0.189917 -31.401867   5.421838   6.115635   1.252811  -3.108387  -0.834770   0.277928  15.090582  20.821556  26.363524  46.405109  -1.484453  29.886337  -3.699179   8.397835   3.911155  -1.327928
 -0.204358   0.881802   1.292179   0.512341 -13.149596   9.509748 -18.483664   8.925482   1.173054  35.799169  -1.276563   6.378844  -0.008318  -0.562875  -0.671607  -0.818513   0.306985  -0.495727 -11.344414 -12.447852  -1.073406  24.940844  -1.947952  -6.507719   0.089284   0.527077   2.105752   0.037568   0.247290   0.715978   1.321074   0.234139   0.538611   6.377415  -0.279241   1.090996  14.157949   1.058054  -1.995830  -0.253992  -1.566073 -16.482702  16.365236 -28.826607 -46.380542   1.428273 -32.544652   7.882288   8.389949   1.596466  -3.623883  -1.009156  -0.237978  17.846781  21.664279  26.998038  43.201670  -0.904186  30.800935  -3.378220   7.323496   5.006233  -3.713931
 -0.048958   0.875792   0.890156   1.751012 -22.966377   1.018597 -19.133954  10.227661  -0.015083  33.001497  -1.659171   4.843745  -3.311135   0.662517  -1.577122   0.287423  -1.073732   0.197209 -15.327118 -10.302749  -2.277678  27.163828  -0.823355  -6.200507  -0.688359  -1.099730   3.508302   0.725444   0.406258  -0.075493   1.346597   0.805379   1.111454   7.192212   1.699657   0.534245  12.270936   2.218969  -3.212470  -0.902317  -1.365650 -16.572156  16.210999 -28.135334 -47.796928   0.702937 -30.085151   6.326012   4.216230   1.246817  -3.888874  -0.754249   1.570523  16.876147  19.154164  26.420258  45.503836  -1.178884  29.975552  -3.935736   9.280320   5.200691  -2.656303
 -0.025373   0.839618   0.903929   1.083669 -41.707956   1.033157 -16.917878   9.054952   0.286883  33.385762  -0.610002   5.279101  -2.238546  -0.107801  -0.452569  -0.932081  -0.048064   0.086825 -14.585916 -13.257246   0.041637  25.332953  -0.410793  -6.046437  -0.680358  -0.391447   0.838716  -0.978617  -0.347820   0.229354   2.075905   0.719120   1.445428   7.073301   0.463709   0.226775  12.265596   3.571642  -2.753466   0.143493  -1.271982 -16.259011  16.318816 -27.536021 -47.082175  -0.297848 -32.573605   6.490644   5.098393   1.173209  -3.872221  -0.391081   1.231219  17.369776  19.538771  25.382499  46.340388  -1.975825  30.608979  -4.733708   8.935811   4.735536  -1.846823
 -0.082255   0.881973   1.370539 171.613287 -68.487652 170.819743 -17.730253   9.145531   0.903639  32.666454   0.345426   4.997811  -4.190926  -0.509739  -0.491033   0.717919  -0.342665  -0.312232 -18.220325 -11.871065  -0.509358  26.384322  -0.754959  -5.160019  -1.514711  -0.729095   1.596248   0.118752   0.722295   0.038606   0.530369   1.286443   0.100417   6.404562   0.330176  -0.804660  12.448439   3.122877  -2.216024  -0.338973  -1.317219 -15.565216  16.301892 -26.810429 -46.811081   1.296882 -33.007655   6.280802   6.027788   1.276924  -2.658418  -0.818478   0.873165  16.404728  18.568649  26.199849  46.372983  -2.180219  29.797235  -3.339373   9.732557   4.341101  -3.712353
 -0.096015   0.847270   1.311853   7.176665 -12.979034   8.907334 -17.491805   8.395323   0.680270  34.682205  -3.332387   4.992656  -2.038110  -2.817958  -2.488639  -0.460940   0.004585  -0.125599 -15.490123 -10.006534  -1.390662  26.669299  -1.825352  -5.196578  -0.267737   1.275479   3.863377  -0.232304  -0.051053   0.202977   1.257219  -0.104065   0.949505   5.766141  -1.856416   0.135637  13.756117  -0.114259  -3.267086   0.400014  -1.963616 -16.401804  15.477558 -27.605893 -47.202739   1.427782 -29.782354   8.101508   9.395971   1.932485  -4.551694  -0.510972  -0.328051  17.990681  17.955824  24.849685  46.298002  -2.048594  27.899365  -3.761368   8.504961   5.271501  -2.101047
 -0.198970   0.868582   1.267793  16.774123  64.212350  -4.695247 -14.747622  10.090833   2.487171  32.434795   0.878638   5.571281  -4.634027   3.001778   2.078576  -0.176997  -0.778367  -0.111313 -14.831331  -7.720767  -0.138029  25.531146  -0.738336  -6.033961  -0.711484  -1.563328   1.903146  -0.786850   0.651019   0.671768   1.602799  -0.037852   1.440412   6.938591  -1.824454   2.302668  12.864657   1.739103  -1.732264   0.025718  -0.268440 -16.328187  16.673086 -25.699073 -47.310337   0.923707 -31.612196   6.232639   6.571081   0.776135  -2.249585  -0.320675   0.124054  17.007765  19.325379  26.303167  46.556778  -0.902610  30.362213  -3.923189   9.364943   4.142055  -2.098183
 -0.106364   0.849069   1.395287  -3.833540 -81.007248  -1.775696 -15.814996   9.725228  -1.495007  34.068017  -2.692074   5.902468  -1.685848  -1.486828  -1.562336   0.426026  -0.807200  -0.152310 -13.932361 -11.777892  -1.714837  28.891992  -1.975530  -4.913396  -1.027154  -0.668537   1.904936  -0.417956   0.441578   0.531696   1.594967  -0.952640   0.412387   7.880059  -1.353122   1.998483  11.708831  -0.088583  -2.093695   0.507404   0.955925 -15.027124  14.980483 -26.847774 -49.247946   0.972478 -32.556509   4.419256   9.291694   1.425799  -5.915386  -0.610170  -0.025024  16.014775  18.702073  26.101779  47.431964  -1.420161  32.468155  -3.228567   7.829101   5.890197  -2.176784
